<svg width="27" height="27" viewBox="0 0 27 27" fill="none" xmlns="http://www.w3.org/2000/svg">
<path d="M24 13.5C24 18.873 19.9395 23.3027 14.7715 23.959V16.7402H17.6016L18.1758 13.5H14.7715V12.3926C14.7715 10.6699 15.4277 10.0137 17.1504 10.0137C17.6836 10.0137 18.0938 10.0547 18.3398 10.0547V7.18359C17.8887 7.01953 16.7402 6.89648 16.084 6.89648C12.5566 6.89648 10.957 8.57812 10.957 12.1465V13.5H8.7832V16.7402H10.957V23.7129C6.36328 22.5645 3 18.4219 3 13.5C3 7.7168 7.67578 3 13.5 3C19.2832 3 24 7.7168 24 13.5Z" fill="#010101"/>
</svg>
