<svg width="27" height="27" viewBox="0 0 27 27" fill="none" xmlns="http://www.w3.org/2000/svg">
<path d="M13.6465 8.66211C16.3535 8.66211 18.5879 10.8965 18.5879 13.6035C18.5879 16.3535 16.3535 18.5449 13.6465 18.5449C10.8965 18.5449 8.70508 16.3535 8.70508 13.6035C8.70508 10.8965 10.8965 8.66211 13.6465 8.66211ZM13.6465 16.8262C15.4082 16.8262 16.8262 15.4082 16.8262 13.6035C16.8262 11.8418 15.4082 10.4238 13.6465 10.4238C11.8418 10.4238 10.4238 11.8418 10.4238 13.6035C10.4238 15.4082 11.8848 16.8262 13.6465 16.8262ZM19.9199 8.49023C19.9199 7.8457 19.4043 7.33008 18.7598 7.33008C18.1152 7.33008 17.5996 7.8457 17.5996 8.49023C17.5996 9.13477 18.1152 9.65039 18.7598 9.65039C19.4043 9.65039 19.9199 9.13477 19.9199 8.49023ZM23.1855 9.65039C23.2715 11.2402 23.2715 16.0098 23.1855 17.5996C23.0996 19.1465 22.7559 20.4785 21.6387 21.6387C20.5215 22.7559 19.1465 23.0996 17.5996 23.1855C16.0098 23.2715 11.2402 23.2715 9.65039 23.1855C8.10352 23.0996 6.77148 22.7559 5.61133 21.6387C4.49414 20.4785 4.15039 19.1465 4.06445 17.5996C3.97852 16.0098 3.97852 11.2402 4.06445 9.65039C4.15039 8.10352 4.49414 6.72852 5.61133 5.61133C6.77148 4.49414 8.10352 4.15039 9.65039 4.06445C11.2402 3.97852 16.0098 3.97852 17.5996 4.06445C19.1465 4.15039 20.5215 4.49414 21.6387 5.61133C22.7559 6.72852 23.0996 8.10352 23.1855 9.65039ZM21.123 19.2754C21.6387 18.0293 21.5098 15.0215 21.5098 13.6035C21.5098 12.2285 21.6387 9.2207 21.123 7.93164C20.7793 7.11523 20.1348 6.42773 19.3184 6.12695C18.0293 5.61133 15.0215 5.74023 13.6465 5.74023C12.2285 5.74023 9.2207 5.61133 7.97461 6.12695C7.11523 6.4707 6.4707 7.11523 6.12695 7.93164C5.61133 9.2207 5.74023 12.2285 5.74023 13.6035C5.74023 15.0215 5.61133 18.0293 6.12695 19.2754C6.4707 20.1348 7.11523 20.7793 7.97461 21.123C9.2207 21.6387 12.2285 21.5098 13.6465 21.5098C15.0215 21.5098 18.0293 21.6387 19.3184 21.123C20.1348 20.7793 20.8223 20.1348 21.123 19.2754Z" fill="#010101"/>
</svg>
