<svg width="27" height="27" viewBox="0 0 27 27" fill="none" xmlns="http://www.w3.org/2000/svg">
<path d="M23.9167 10.2917C24.0833 10.1667 24.3333 10.2917 24.3333 10.5V19C24.3333 20.125 23.4167 21 22.3333 21H5C3.875 21 3 20.125 3 19V10.5C3 10.2917 3.20833 10.1667 3.375 10.2917C4.33333 11.0417 5.54167 11.9583 9.79167 15.0417C10.6667 15.6667 12.1667 17.0417 13.6667 17.0417C15.125 17.0417 16.6667 15.6667 17.5 15.0417C21.75 11.9583 22.9583 11.0417 23.9167 10.2917ZM13.6667 15.6667C12.6667 15.7083 11.2917 14.4583 10.5833 13.9583C5.04167 9.95833 4.625 9.58333 3.375 8.58333C3.125 8.41667 3 8.125 3 7.79167V7C3 5.91667 3.875 5 5 5H22.3333C23.4167 5 24.3333 5.91667 24.3333 7V7.79167C24.3333 8.125 24.1667 8.41667 23.9167 8.58333C22.6667 9.58333 22.25 9.95833 16.7083 13.9583C16 14.4583 14.625 15.7083 13.6667 15.6667Z" fill="white"/>
</svg>
