<svg width="27" height="27" viewBox="0 0 27 27" fill="none" xmlns="http://www.w3.org/2000/svg">
<path d="M23.3913 11.6133C21.5456 11.6543 19.8229 11.0801 18.3463 10.0137V17.3555C18.3463 20.1445 16.6237 22.6055 13.9987 23.5898C11.4147 24.5742 8.46157 23.8359 6.65689 21.7441C4.81118 19.6113 4.48306 16.6172 5.79556 14.1562C7.10806 11.7363 9.81509 10.3828 12.6042 10.752V14.4434C11.3327 14.0332 9.93814 14.4844 9.15884 15.5508C8.42056 16.6582 8.42056 18.0938 9.19985 19.1602C9.97915 20.2266 11.3737 20.6777 12.6042 20.2676C13.8756 19.8574 14.737 18.668 14.737 17.3555V3H18.3463C18.3463 3.32812 18.3463 3.61523 18.4284 3.94336C18.6745 5.29688 19.4538 6.48633 20.6432 7.22461C21.4225 7.75781 22.4069 8.04492 23.3913 8.04492V11.6133Z" fill="white"/>
</svg>
