<svg width="27" height="27" viewBox="0 0 27 27" fill="none" xmlns="http://www.w3.org/2000/svg">
<path d="M22.9643 2.75C23.7801 2.75 24.5 3.46987 24.5 4.33371V22.7143C24.5 23.5781 23.7801 24.25 22.9643 24.25H4.48772C3.67187 24.25 3 23.5781 3 22.7143V4.33371C3 3.46987 3.67187 2.75 4.48772 2.75H22.9643ZM9.47879 21.1786V10.9565H6.31138V21.1786H9.47879ZM7.89509 9.51674C8.9029 9.51674 9.71875 8.70089 9.71875 7.69308C9.71875 6.68527 8.9029 5.82143 7.89509 5.82143C6.83929 5.82143 6.02344 6.68527 6.02344 7.69308C6.02344 8.70089 6.83929 9.51674 7.89509 9.51674ZM21.4286 21.1786V15.5636C21.4286 12.8281 20.8047 10.6685 17.5893 10.6685C16.0536 10.6685 14.9978 11.5324 14.5658 12.3482H14.5179V10.9565H11.4944V21.1786H14.6618V16.1395C14.6618 14.7958 14.9018 13.5 16.5815 13.5C18.2132 13.5 18.2132 15.0357 18.2132 16.1875V21.1786H21.4286Z" fill="white"/>
</svg>
