<svg width="32" height="35" viewBox="0 0 32 35" fill="none" xmlns="http://www.w3.org/2000/svg">
<path d="M29.2 26.7201C29.6 26.5601 29.9333 26.4801 30.2 26.4801C30.6267 26.4801 30.9467 26.6401 31.16 26.9601C31.3733 27.2801 31.48 27.6934 31.48 28.2001C31.48 29.0001 31.28 29.6801 30.88 30.2401C30.5067 30.8001 29.8533 31.3067 28.92 31.7601C27.3467 32.5067 25.3067 33.1067 22.8 33.5601C20.2933 33.9867 17.8267 34.2001 15.4 34.2001C12.04 34.2001 9.22666 33.8267 6.95999 33.0801C4.69332 32.3067 2.99999 31.2534 1.87999 29.9201C0.786657 28.5867 0.23999 27.0801 0.23999 25.4001C0.23999 23.1067 0.973324 21.1601 2.43999 19.5601C3.93332 17.9334 6.11999 16.7601 8.99999 16.0401C7.42666 15.5867 6.21332 14.7867 5.35999 13.6401C4.53332 12.4934 4.11999 11.2134 4.11999 9.80008C4.11999 7.88008 4.71999 6.18674 5.91999 4.72008C7.14666 3.22674 8.78666 2.08008 10.84 1.28008C12.8933 0.480079 15.1467 0.0800781 17.6 0.0800781C20.9067 0.0800781 23.3867 0.800078 25.04 2.24008C26.6933 3.65341 27.52 5.49341 27.52 7.76008C27.52 9.33341 27.2267 10.6134 26.64 11.6001C26.08 12.5601 25.2667 13.0401 24.2 13.0401C23.4533 13.0401 22.8667 12.8801 22.44 12.5601C22.0133 12.2134 21.8 11.7067 21.8 11.0401C21.8 10.5867 21.8667 10.0934 22 9.56008C22.1333 8.68008 22.2 8.08008 22.2 7.76008C22.2 6.80008 21.84 6.02675 21.12 5.44008C20.4 4.82674 19.2 4.52008 17.52 4.52008C15.2533 4.52008 13.44 5.00008 12.08 5.96008C10.72 6.92008 10.04 8.21341 10.04 9.84008C10.04 11.0934 10.5467 12.1334 11.56 12.9601C12.6 13.7601 14.28 14.2001 16.6 14.2801C17.1867 14.3067 17.6 14.4401 17.84 14.6801C18.08 14.9201 18.2 15.3201 18.2 15.8801C18.2 17.6401 17.4 18.5334 15.8 18.5601C13.5867 18.6134 11.7467 18.9201 10.28 19.4801C8.83999 20.0401 7.78666 20.7601 7.11999 21.6401C6.47999 22.4934 6.15999 23.4134 6.15999 24.4001C6.15999 26.0534 6.93332 27.3067 8.47999 28.1601C10.0267 28.9867 12.48 29.4001 15.84 29.4001C18.0533 29.4001 20.3867 29.1467 22.84 28.6401C25.32 28.1067 27.44 27.4667 29.2 26.7201Z" fill="#010101"/>
</svg>
