<svg width="105" height="105" viewBox="0 0 105 105" fill="none" xmlns="http://www.w3.org/2000/svg">
<mask id="mask0_16_284" style="mask-type:alpha" maskUnits="userSpaceOnUse" x="0" y="0" width="105" height="105">
<rect width="105" height="105" fill="#D9D9D9"/>
</mask>
<g mask="url(#mask0_16_284)">
<mask id="mask1_16_284" style="mask-type:alpha" maskUnits="userSpaceOnUse" x="0" y="0" width="209" height="209">
<path fill-rule="evenodd" clip-rule="evenodd" d="M104.009 208.019C46.5666 208.019 -1.52588e-05 161.452 -1.52588e-05 104.009V208.019H104.009ZM208.019 104.009C208.019 161.452 161.452 208.019 104.009 208.019H208.019V104.009ZM104.009 0C161.452 0 208.019 46.5666 208.019 104.009V0H104.009ZM104.009 0H-1.52588e-05V104.009C-1.52588e-05 46.5666 46.5666 0 104.009 0Z" fill="#D9D9D9"/>
</mask>
<g mask="url(#mask1_16_284)">
<rect width="104.009" height="104.009" transform="matrix(-1 0 0 1 104.009 0)" fill="black"/>
</g>
</g>
</svg>
