<svg width="105" height="105" viewBox="0 0 105 105" fill="none" xmlns="http://www.w3.org/2000/svg">
<g clip-path="url(#clip0_130_437)">
<mask id="mask0_130_437" style="mask-type:alpha" maskUnits="userSpaceOnUse" x="0" y="0" width="105" height="105">
<path d="M105 0H0V105H105V0Z" fill="#D9D9D9"/>
</mask>
<g mask="url(#mask0_130_437)">
<mask id="mask1_130_437" style="mask-type:alpha" maskUnits="userSpaceOnUse" x="0" y="0" width="209" height="209">
<path fill-rule="evenodd" clip-rule="evenodd" d="M104.009 208.019C46.5666 208.019 0 161.452 0 104.009V208.019H104.009ZM208.019 104.009C208.019 161.452 161.452 208.019 104.009 208.019H208.019V104.009ZM104.009 0C161.452 0 208.019 46.5666 208.019 104.009V0H104.009ZM104.009 0H0V104.009C0 46.5666 46.5666 0 104.009 0Z" fill="#D9D9D9"/>
</mask>
<g mask="url(#mask1_130_437)">
<path d="M-0.000213623 0H104.009V104.009H-0.000213623V0Z" fill="#1C1C1C"/>
</g>
</g>
</g>
<defs>
<clipPath id="clip0_130_437">
<rect width="105" height="105" fill="white"/>
</clipPath>
</defs>
</svg>
